<svg width="200" height="80" viewBox="0 0 200 80" fill="none" xmlns="http://www.w3.org/2000/svg">
  <path d="M56.7976 59.5405C56.6117 61.4425 53.4519 64.6697 50.4779 64.6697C46.1749 64.6697 39.7883 55.1073 37.7623 44.1509C36.688 44.3371 35.5485 44.5232 34.4166 44.659C33.6564 47.9513 32.5262 53.544 31.7679 57.4728C31.2604 59.9406 29.8069 60.6367 27.9723 60.6367C26.5801 60.6367 25.6954 60.1286 24.9984 59.3078C25.2493 57.8487 28.7846 38.6402 30.1768 32.1803C31.8218 24.4511 33.0857 22.7426 36.3106 22.7426C37.9556 22.7426 39.7902 23.6303 40.4221 24.7042C38.5244 28.5697 36.9426 33.8888 35.2976 40.7916C43.0151 39.3363 51.3645 33.7008 51.3645 26.4146C51.3645 22.8189 47.5151 19.2474 40.4742 19.2474C29.7846 19.2474 21.688 25.7706 21.688 34.5085C21.6917 39.1278 23.0486 41.3611 25.8367 42.4778C22.8627 45.4556 20.8181 45.4556 19.0244 45.1187C16.5857 44.6609 13.8701 41.175 13.8701 35.2195C13.8701 23.8834 27.1415 14.1312 42.2604 14.1312C51.8106 14.1312 58.8961 18.0582 58.8961 25.7222C58.8961 33.2579 53.134 39.9709 43.5132 43.0119C45.8534 49.0271 50.8515 57.4504 56.7976 59.5405Z" fill="black"/>
  <path d="M77.3477 36.7251C78.6154 39.258 79.1135 41.5639 79.1135 45.5839C79.1135 51.854 74.8942 60.7166 66.1358 60.7166C60.1024 60.7166 56.4258 54.6252 56.4258 46.8104C56.4258 33.4104 65.7288 30.0083 71.0633 30.0083C80.6953 30.0083 85.8291 37.369 89.2362 41.8264L88.6507 46.1869C85.6767 42.809 81.4499 38.8281 77.5931 36.3845L77.3477 36.7251ZM67.805 54.6289C73.0875 54.6289 75.7566 36.1481 69.7473 36.1481C63.3477 36.15 60.0373 54.6289 67.805 54.6289V54.6289Z" fill="black"/>
  <path d="M94.1266 60.7166C86.1823 60.7166 82.5615 54.8206 82.5615 48.102C82.5615 41.951 86.9147 30.0083 95.4611 30.0083C100.831 30.0083 104.331 32.8242 104.331 37.2238C104.331 43.6707 98.8719 45.1094 96.5355 42.7699C99.5875 39.714 98.0225 35.8838 96.2548 35.8838C92.4425 35.8838 90.4723 42.7309 90.4723 48.3291C90.4723 52.4477 92.8143 54.8076 95.305 54.8076C100.27 54.8076 106.602 47.808 108.584 45.3811L110.714 48.9674C106.666 54.6866 100.582 60.7166 94.1266 60.7166Z" fill="black"/>
  <path d="M143.267 42.1632C140.805 47.862 135.046 60.6385 127.139 60.6385C122.58 60.6385 118.299 49.8273 118.031 47.1752C117.989 46.9226 118.028 46.6632 118.141 46.4337C118.254 46.2042 118.437 46.0163 118.663 45.8966C120.561 44.6962 128.269 41.6607 128.269 38.1116C128.269 37.2276 128.063 36.1016 127.07 36.1016C123.591 36.1016 116.133 47.6777 113.855 54.9602C113.604 56.477 113.34 59.7545 113.221 60.7055C108.345 60.6385 105.58 57.4281 105.58 55.0254C105.58 50.5271 109.875 30.0642 113.604 14.2317C117.464 14.2317 121.312 15.0636 121.312 17.913C121.312 21.0917 117.57 32.6492 115.448 41.0019C118.966 35.5917 123.671 30.1498 128.295 30.1498C131.037 30.1498 135.609 31.7875 135.609 35.3367C135.609 42.2377 125.12 45.1447 124.554 46.3452C124.87 48.4947 126.951 55.2655 129.297 55.2655C131.444 55.2655 136.07 48.839 140.498 40.0918C141.133 40.0918 143.267 41.2122 143.267 42.1632Z" fill="black"/>
  <path d="M149.629 61.0889C131.874 61.0889 137.056 30.5165 151.125 30.5165C155.892 30.5165 159.381 33.6003 159.381 38.0503C159.381 43.9388 152.504 49.926 146.218 51.3721C149.264 58.958 165.011 48.7293 166.203 43.7415L168.619 50.8137C163.51 56.1886 156.759 61.0889 149.629 61.0889ZM145.504 46.3229C148.337 45.6566 153.682 41.404 153.682 38.9789C153.682 37.17 152.381 36.4236 151.56 36.4236C148.577 36.4236 145.508 41.2365 145.508 46.3229H145.504Z" fill="black"/>
  <path d="M186.671 33.6859C186.671 35.521 185.472 37.222 184.208 37.5942C181.918 34.475 178.355 36.5911 177.085 40.9889C174.669 49.3639 175.191 55.2264 173.149 59.8364C170.342 61.9785 164.784 60.4859 165.065 56.3245C165.108 49.8701 167.217 38.2047 166.71 31.2199C167.935 30.6988 172.184 29.8669 173.03 30.2894C174.31 32.0984 172.859 37.8957 172.872 39.3269C175.929 26.9543 186.803 28.7893 186.671 33.6859Z" fill="black"/>
</svg>
